<svg width="14" height="18" fill="none" xmlns="http://www.w3.org/2000/svg"><path d="M13.691 4.639a.624.624 0 01.184.441v12.045c0 .346-.28.625-.625.625H.75a.624.624 0 01-.625-.625V.875C.125.529.405.25.75.25h8.295c.166 0 .326.066.443.184l4.203 4.205zm-1.257.728L8.758 1.691v3.676h3.676zm-3.066 6.08a6.193 6.193 0 00-.97.057c-.475-.293-.794-.695-1.021-1.285l.02-.086.025-.101c.084-.354.129-.613.142-.873.01-.197 0-.378-.035-.546-.065-.364-.322-.576-.645-.589-.302-.012-.58.156-.65.417-.116.423-.048.978.197 1.926-.312.743-.724 1.614-1 2.1-.37.19-.657.364-.898.556-.318.253-.517.513-.572.787a.596.596 0 00.105.428c.103.154.26.254.446.268.472.037 1.051-.45 1.692-1.548l.215-.072.232-.079.36-.12a7.936 7.936 0 011.117-.295c.546.292 1.178.484 1.603.484.351 0 .588-.182.674-.469.075-.251.016-.543-.146-.704-.167-.164-.474-.243-.891-.256zm-4.844 2.508v-.007l.003-.007a1.07 1.07 0 01.109-.21c.084-.129.199-.264.341-.408.077-.077.156-.152.25-.237l.18-.16.218-.204-.159.253c-.24.383-.458.66-.645.84a1.204 1.204 0 01-.177.146.32.32 0 01-.051.028.074.074 0 01-.022.006.04.04 0 01-.047-.04zm2.46-4.264l-.044.079-.028-.086a3.222 3.222 0 01-.117-.742c-.014-.297.01-.475.103-.475.132 0 .192.21.197.528.004.279-.04.57-.111.696zm-.114 1.142l.03-.079.041.074c.228.415.525.761.85 1.003l.07.051-.085.018a5.763 5.763 0 00-1.022.33c.042-.018-.423.172-.54.217l-.103.04.055-.096c.241-.42.464-.924.704-1.558zm3.079 1.49c-.154.06-.484.006-1.066-.242l-.148-.063.16-.012c.456-.034.778-.009.966.06.08.03.133.066.157.108a.09.09 0 01-.027.124.132.132 0 01-.042.025z" fill="#DB4212"/></svg>