<svg width="179" height="42" fill="none" xmlns="http://www.w3.org/2000/svg"><path d="M0 5a5 5 0 015-5h169a5 5 0 015 5v32a5 5 0 01-5 5H5a5 5 0 01-5-5V5z" fill="#EBEBEB"/><path d="M26.691 16.639a.624.624 0 01.184.441v12.045c0 .346-.28.625-.625.625h-12.5a.624.624 0 01-.625-.625v-16.25c0-.346.28-.625.625-.625h8.295c.166 0 .326.066.443.184l4.203 4.205zm-1.257.728l-3.676-3.676v3.676h3.676zm-3.066 6.08a6.193 6.193 0 00-.97.057c-.475-.293-.794-.695-1.021-1.285l.02-.086.025-.101a4.76 4.76 0 00.142-.873c.01-.197 0-.378-.035-.546-.065-.364-.322-.576-.645-.589-.302-.012-.58.156-.65.417-.116.423-.048.978.197 1.926-.312.743-.724 1.614-1 2.1-.37.19-.657.364-.898.556-.318.253-.517.513-.572.787a.596.596 0 00.105.428c.103.154.26.254.446.268.472.037 1.052-.45 1.691-1.548l.216-.072.232-.079.36-.12a7.936 7.936 0 011.117-.295c.546.292 1.178.484 1.603.484.351 0 .588-.182.674-.469.075-.251.016-.543-.146-.704-.167-.165-.474-.243-.891-.256zm-4.844 2.508v-.007l.003-.007c.028-.074.065-.144.109-.21.084-.129.199-.264.341-.408.077-.077.156-.152.25-.236.02-.02.154-.138.18-.162l.218-.203-.159.253c-.24.383-.458.66-.645.84a1.203 1.203 0 01-.177.146.318.318 0 01-.051.028.074.074 0 01-.022.006.04.04 0 01-.047-.04zm2.46-4.264l-.044.079-.028-.086a3.224 3.224 0 01-.117-.742c-.014-.297.01-.475.103-.475.132 0 .192.21.197.528.004.279-.04.57-.111.696zm-.114 1.142l.03-.079.041.074c.228.415.525.761.85 1.003l.07.051-.085.018a5.763 5.763 0 00-1.022.33c.042-.018-.423.172-.54.217l-.103.04.055-.096c.241-.42.464-.924.704-1.558zm3.079 1.49c-.154.06-.484.006-1.066-.242l-.148-.063.16-.012c.456-.034.778-.009.966.06.08.03.133.066.157.108a.09.09 0 01-.027.124.132.132 0 01-.042.025z" fill="#DB4212"/><path d="M44.344 26h-1.648l-4.048-4.8-1.072 1.216V26h-1.328V15.328h1.328v5.52l4.72-5.52h1.664L39.512 20.4l4.832 5.6zm7.232 0h-1.2v-.88c-.65.715-1.504 1.072-2.56 1.072-.715 0-1.344-.23-1.888-.688-.544-.459-.816-1.083-.816-1.872 0-.81.266-1.435.8-1.872a2.905 2.905 0 011.904-.672c1.098 0 1.952.352 2.56 1.056v-1.392c0-.512-.182-.912-.544-1.2-.363-.288-.832-.432-1.408-.432-.907 0-1.696.357-2.368 1.072l-.56-.832c.821-.853 1.85-1.28 3.088-1.28.885 0 1.605.213 2.16.64.554.427.832 1.083.832 1.968V26zm-3.328-.672c.96 0 1.67-.32 2.128-.96v-1.456c-.459-.64-1.168-.96-2.128-.96-.555 0-1.014.16-1.376.48-.352.31-.528.715-.528 1.216 0 .49.176.896.528 1.216.362.31.821.464 1.376.464zM60.78 26h-1.536l-2.784-3.472-1.28 1.264V26h-1.2v-7.728h1.2v4.112l4.064-4.112h1.52l-3.424 3.504L60.781 26zm7.516-.976c-.693.779-1.616 1.168-2.768 1.168-1.152 0-2.08-.39-2.784-1.168-.693-.779-1.04-1.744-1.04-2.896s.347-2.112 1.04-2.88c.704-.779 1.632-1.168 2.784-1.168s2.075.39 2.768 1.168c.704.768 1.056 1.728 1.056 2.88s-.352 2.117-1.056 2.896zm-4.656-.768c.47.576 1.099.864 1.888.864.79 0 1.413-.288 1.872-.864.459-.587.688-1.296.688-2.128 0-.832-.23-1.536-.688-2.112-.459-.576-1.082-.864-1.872-.864s-1.418.293-1.888.88c-.459.576-.688 1.275-.688 2.096 0 .832.23 1.541.688 2.128zM72.461 26H71.31v-7.728h1.2v5.904l4.048-5.904h1.184V26h-1.2v-6.016L72.461 26zm4.864-10.016c-.693.939-1.626 1.408-2.8 1.408-1.162 0-2.101-.47-2.816-1.408l.592-.512c.555.768 1.296 1.152 2.224 1.152.939 0 1.675-.384 2.208-1.152l.592.512zM86.871 26h-1.2v-6.672h-2.24v-1.056h5.695v1.056h-2.255V26zm9.973-.976c-.693.779-1.616 1.168-2.768 1.168-1.152 0-2.08-.39-2.784-1.168-.693-.779-1.04-1.744-1.04-2.896s.347-2.112 1.04-2.88c.704-.779 1.632-1.168 2.784-1.168s2.075.39 2.768 1.168c.704.768 1.056 1.728 1.056 2.88s-.352 2.117-1.056 2.896zm-4.656-.768c.47.576 1.099.864 1.888.864.79 0 1.413-.288 1.872-.864.459-.587.688-1.296.688-2.128 0-.832-.23-1.536-.688-2.112-.459-.576-1.083-.864-1.872-.864-.79 0-1.419.293-1.888.88-.459.576-.688 1.275-.688 2.096 0 .832.23 1.541.688 2.128zm14.273-6.176c.875 0 1.579.453 2.112 1.36v-4.112h1.2v4.096c.235-.405.534-.73.896-.976a2.149 2.149 0 011.2-.368c.832 0 1.504.368 2.016 1.104.512.725.768 1.707.768 2.944 0 1.237-.261 2.224-.784 2.96-.512.736-1.178 1.104-2 1.104-.874 0-1.573-.453-2.096-1.36v4.112h-1.2v-4.096a2.86 2.86 0 01-.912.976 2.144 2.144 0 01-1.2.368c-.832 0-1.504-.363-2.016-1.088-.512-.736-.768-1.723-.768-2.96 0-1.237.256-2.224.768-2.96.523-.736 1.195-1.104 2.016-1.104zm.336 1.072c-.586 0-1.05.283-1.392.848-.341.555-.512 1.27-.512 2.144 0 .875.171 1.59.512 2.144.342.555.806.832 1.392.832.363 0 .71-.117 1.04-.352.331-.235.576-.528.736-.88V20.4a2.286 2.286 0 00-.752-.88c-.33-.245-.672-.368-1.024-.368zm4.736 5.968c.587 0 1.051-.277 1.392-.832.342-.565.512-1.285.512-2.16 0-.875-.17-1.59-.512-2.144-.341-.555-.805-.832-1.392-.832-.352 0-.693.123-1.024.368a2.2 2.2 0 00-.736.864v3.488c.171.352.416.65.736.896.331.235.672.352 1.024.352zm11.246.88h-1.2v-.88c-.651.715-1.504 1.072-2.56 1.072-.715 0-1.344-.23-1.888-.688-.544-.459-.816-1.083-.816-1.872 0-.81.267-1.435.8-1.872a2.906 2.906 0 011.904-.672c1.099 0 1.952.352 2.56 1.056v-1.392c0-.512-.181-.912-.544-1.2-.363-.288-.832-.432-1.408-.432-.907 0-1.696.357-2.368 1.072l-.56-.832c.821-.853 1.851-1.28 3.088-1.28.885 0 1.605.213 2.16.64.555.427.832 1.083.832 1.968V26zm-3.328-.672c.96 0 1.669-.32 2.128-.96v-1.456c-.459-.64-1.168-.96-2.128-.96-.555 0-1.013.16-1.376.48-.352.31-.528.715-.528 1.216 0 .49.176.896.528 1.216.363.31.821.464 1.376.464zm6.885.672h-1.152v-7.728h1.2v5.904l4.048-5.904h1.184V26h-1.2v-6.016L126.336 26zm4.864-10.016c-.693.939-1.626 1.408-2.8 1.408-1.162 0-2.101-.47-2.816-1.408l.592-.512c.555.768 1.296 1.152 2.224 1.152.939 0 1.675-.384 2.208-1.152l.592.512zm1.901 10.208V25.2c.362 0 .661-.24.896-.72.234-.48.426-1.28.576-2.4l.496-3.808h5.376V26h-1.2v-6.672h-3.12l-.352 2.896c-.171 1.419-.47 2.437-.896 3.056-.427.608-1.019.912-1.776.912zm11.004-.288a.85.85 0 01-.624.256.847.847 0 01-.624-.256.848.848 0 01-.256-.624c0-.245.085-.453.256-.624a.847.847 0 01.624-.256.85.85 0 01.624.256c.17.17.256.379.256.624a.852.852 0 01-.256.624zm6.231.288c-1.088 0-1.957-.453-2.608-1.36v4.112h-1.2V18.272h1.2v1.152c.288-.405.661-.73 1.12-.976a3.108 3.108 0 011.488-.368c1.024 0 1.851.368 2.48 1.104.64.725.96 1.707.96 2.944 0 1.237-.32 2.224-.96 2.96-.629.736-1.456 1.104-2.48 1.104zm-.304-1.072c.757 0 1.36-.277 1.808-.832.448-.565.672-1.285.672-2.16 0-.875-.224-1.59-.672-2.144-.448-.555-1.051-.832-1.808-.832-.459 0-.907.123-1.344.368-.427.235-.747.523-.96.864v3.488c.213.352.533.65.96.896.437.235.885.352 1.344.352zm12.452.88h-1.2v-1.152c-.661.896-1.53 1.344-2.608 1.344-1.024 0-1.856-.363-2.496-1.088-.629-.736-.944-1.723-.944-2.96 0-1.227.315-2.208.944-2.944.64-.747 1.472-1.12 2.496-1.12 1.067 0 1.936.453 2.608 1.36v-4.112h1.2V26zm-3.52-.88c.47 0 .918-.117 1.344-.352.427-.235.752-.523.976-.864V20.4c-.224-.352-.554-.645-.992-.88a2.627 2.627 0 00-1.328-.368c-.757 0-1.36.283-1.808.848-.448.555-.672 1.27-.672 2.144 0 .875.224 1.59.672 2.144.448.555 1.051.832 1.808.832zm7.46.88h-1.2v-6.672h-1.28v-1.056h1.28v-.592c0-.79.197-1.403.592-1.84.405-.448.954-.672 1.648-.672.661 0 1.205.197 1.632.592l-.496.784a1.411 1.411 0 00-.96-.384c-.395 0-.699.133-.912.4-.203.256-.304.63-.304 1.12v.592h1.568v1.056h-1.568V26z" fill="#1A1A1A"/><path d="M5 1h169v-2H5v2zm173 4v32h2V5h-2zm-4 36H5v2h169v-2zM1 37V5h-2v32h2zm4 4a4 4 0 01-4-4h-2a6 6 0 006 6v-2zm173-4a4 4 0 01-4 4v2a6 6 0 006-6h-2zm-4-36a4 4 0 014 4h2a6 6 0 00-6-6v2zM5-1a6 6 0 00-6 6h2a4 4 0 014-4v-2z" fill="#DCDCDC"/></svg>