<svg width="40" height="40" fill="none" xmlns="http://www.w3.org/2000/svg"><g clip-path="url(#clip0_3093_502448)"><path d="M5.778 20.993c1.206.877 2.573 1.87 5.222 1.87 2.649 0 4.015-.993 5.221-1.87 1.077-.783 1.927-1.402 3.778-1.402s2.702.619 3.779 1.402c1.206.877 2.573 1.87 5.222 1.87 2.649 0 4.016-.993 5.222-1.87 1.076-.783 1.927-1.402 3.778-1.402v-2.454c-2.65 0-4.016.994-5.222 1.87-1.077.784-1.927 1.402-3.778 1.402s-2.702-.618-3.779-1.401c-1.206-.877-2.573-1.871-5.222-1.871-2.649 0-4.015.994-5.221 1.87C13.7 19.792 12.85 20.41 11 20.41c-1.851 0-2.702-.618-3.778-1.401C6.016 18.13 4.649 17.137 2 17.137v2.454c1.85 0 2.701.619 3.778 1.402z" fill="#00A6ED"/><path d="M5.778 12.81c1.206.878 2.573 1.872 5.222 1.872 2.649 0 4.015-.994 5.221-1.871 1.077-.784 1.927-1.402 3.778-1.402s2.702.618 3.779 1.402c1.206.877 2.573 1.87 5.222 1.87 2.649 0 4.016-.993 5.222-1.87 1.076-.784 1.927-1.402 3.778-1.402V8.954c-2.65 0-4.016.994-5.222 1.871-1.077.784-1.927 1.402-3.778 1.402s-2.702-.618-3.779-1.402c-1.206-.877-2.573-1.87-5.222-1.87-2.649 0-4.015.993-5.221 1.87-1.077.784-1.928 1.402-3.778 1.402-1.851 0-2.702-.618-3.778-1.402C6.016 9.948 4.649 8.956 2 8.956v2.454c1.85 0 2.701.618 3.778 1.402zm0 16.364c1.206.877 2.573 1.871 5.222 1.871 2.649 0 4.015-.994 5.221-1.87 1.077-.784 1.927-1.402 3.778-1.402s2.702.618 3.779 1.401c1.206.877 2.573 1.871 5.222 1.871 2.649 0 4.016-.994 5.222-1.87 1.076-.784 1.927-1.402 3.778-1.402v-2.455c-2.65 0-4.016.994-5.222 1.871-1.077.783-1.927 1.402-3.778 1.402s-2.702-.619-3.779-1.402c-1.206-.877-2.573-1.87-5.222-1.87-2.649 0-4.015.993-5.221 1.87-1.077.783-1.928 1.402-3.778 1.402-1.851 0-2.702-.619-3.778-1.402-1.206-.877-2.573-1.87-5.222-1.87v2.454c1.85 0 2.701.618 3.778 1.401z" fill="#fff"/></g><defs><clipPath id="clip0_3093_502448"><path fill="#fff" transform="rotate(180 19 19)" d="M0 0h36v36H0z"/></clipPath></defs></svg>